<mxfile host="Electron" modified="2023-08-03T08:46:17.538Z" agent="Mozilla/5.0 (Windows NT 10.0; Win64; x64) AppleWebKit/537.36 (KHTML, like Gecko) draw.io/21.6.5 Chrome/114.0.5735.243 Electron/25.3.1 Safari/537.36" etag="73gKTdQGM5Hn__J4JMqV" version="21.6.5" type="device">
  <diagram name="Page-1" id="8oGg30fReP1OqK7QNVAj">
    <mxGraphModel dx="1418" dy="828" grid="1" gridSize="10" guides="1" tooltips="1" connect="1" arrows="1" fold="1" page="1" pageScale="1" pageWidth="850" pageHeight="1100" math="0" shadow="0">
      <root>
        <mxCell id="0" />
        <mxCell id="1" parent="0" />
        <mxCell id="YB-b3tIhTCpVr8F6wuja-1" value="&lt;b&gt;Mydatabase&lt;/b&gt;" style="swimlane;fontStyle=0;childLayout=stackLayout;horizontal=1;startSize=30;horizontalStack=0;resizeParent=1;resizeParentMax=0;resizeLast=0;collapsible=1;marginBottom=0;whiteSpace=wrap;html=1;" parent="1" vertex="1">
          <mxGeometry x="240" y="200" width="190" height="220" as="geometry" />
        </mxCell>
        <mxCell id="YB-b3tIhTCpVr8F6wuja-5" value="&lt;u&gt;-context :&amp;nbsp;&lt;/u&gt;&lt;b style=&quot;border-color: var(--border-color); text-align: center;&quot;&gt;&lt;u&gt;Mydatabase&lt;/u&gt;&lt;/b&gt;&lt;u&gt;&lt;br&gt;-isOpen&lt;/u&gt;" style="rounded=0;whiteSpace=wrap;html=1;align=left;" parent="YB-b3tIhTCpVr8F6wuja-1" vertex="1">
          <mxGeometry y="30" width="190" height="40" as="geometry" />
        </mxCell>
        <mxCell id="tOIUKHBSlQ41gSdDSwZ_-1" value="-Mydatabase()" style="text;strokeColor=none;fillColor=none;align=left;verticalAlign=middle;spacingLeft=4;spacingRight=4;overflow=hidden;points=[[0,0.5],[1,0.5]];portConstraint=eastwest;rotatable=0;whiteSpace=wrap;html=1;" vertex="1" parent="YB-b3tIhTCpVr8F6wuja-1">
          <mxGeometry y="70" width="190" height="30" as="geometry" />
        </mxCell>
        <mxCell id="tOIUKHBSlQ41gSdDSwZ_-2" value="&lt;u&gt;+GetDbContext():Mydatabase&lt;/u&gt;" style="text;strokeColor=none;fillColor=none;align=left;verticalAlign=middle;spacingLeft=4;spacingRight=4;overflow=hidden;points=[[0,0.5],[1,0.5]];portConstraint=eastwest;rotatable=0;whiteSpace=wrap;html=1;" vertex="1" parent="YB-b3tIhTCpVr8F6wuja-1">
          <mxGeometry y="100" width="190" height="30" as="geometry" />
        </mxCell>
        <mxCell id="YB-b3tIhTCpVr8F6wuja-2" value="+Open()" style="text;strokeColor=none;fillColor=none;align=left;verticalAlign=middle;spacingLeft=4;spacingRight=4;overflow=hidden;points=[[0,0.5],[1,0.5]];portConstraint=eastwest;rotatable=0;whiteSpace=wrap;html=1;" parent="YB-b3tIhTCpVr8F6wuja-1" vertex="1">
          <mxGeometry y="130" width="190" height="30" as="geometry" />
        </mxCell>
        <mxCell id="YB-b3tIhTCpVr8F6wuja-3" value="+Close()" style="text;strokeColor=none;fillColor=none;align=left;verticalAlign=middle;spacingLeft=4;spacingRight=4;overflow=hidden;points=[[0,0.5],[1,0.5]];portConstraint=eastwest;rotatable=0;whiteSpace=wrap;html=1;" parent="YB-b3tIhTCpVr8F6wuja-1" vertex="1">
          <mxGeometry y="160" width="190" height="30" as="geometry" />
        </mxCell>
        <mxCell id="YB-b3tIhTCpVr8F6wuja-4" value="+Executequery(query string)" style="text;strokeColor=none;fillColor=none;align=left;verticalAlign=middle;spacingLeft=4;spacingRight=4;overflow=hidden;points=[[0,0.5],[1,0.5]];portConstraint=eastwest;rotatable=0;whiteSpace=wrap;html=1;" parent="YB-b3tIhTCpVr8F6wuja-1" vertex="1">
          <mxGeometry y="190" width="190" height="30" as="geometry" />
        </mxCell>
        <mxCell id="tOIUKHBSlQ41gSdDSwZ_-12" value="" style="edgeStyle=orthogonalEdgeStyle;rounded=0;orthogonalLoop=1;jettySize=auto;html=1;exitX=0;exitY=0.5;exitDx=0;exitDy=0;" edge="1" parent="YB-b3tIhTCpVr8F6wuja-1" source="YB-b3tIhTCpVr8F6wuja-5" target="YB-b3tIhTCpVr8F6wuja-1">
          <mxGeometry relative="1" as="geometry">
            <mxPoint x="-80" y="90" as="targetPoint" />
            <Array as="points">
              <mxPoint x="-50" y="50" />
              <mxPoint x="-50" y="-40" />
              <mxPoint x="95" y="-40" />
            </Array>
          </mxGeometry>
        </mxCell>
        <mxCell id="tOIUKHBSlQ41gSdDSwZ_-14" value="" style="edgeStyle=orthogonalEdgeStyle;rounded=0;orthogonalLoop=1;jettySize=auto;html=1;entryX=1;entryY=0.5;entryDx=0;entryDy=0;" edge="1" parent="1" source="tOIUKHBSlQ41gSdDSwZ_-3" target="tOIUKHBSlQ41gSdDSwZ_-2">
          <mxGeometry relative="1" as="geometry">
            <Array as="points">
              <mxPoint x="520" y="315" />
              <mxPoint x="520" y="315" />
            </Array>
          </mxGeometry>
        </mxCell>
        <mxCell id="tOIUKHBSlQ41gSdDSwZ_-3" value="&lt;div&gt;&amp;nbsp; &amp;nbsp;if( _context == null )&lt;/div&gt;&lt;div&gt;&amp;nbsp; &amp;nbsp; &amp;nbsp; &amp;nbsp; &amp;nbsp; &amp;nbsp; &amp;nbsp; &amp;nbsp; _context = new Mydatabase();&lt;/div&gt;&lt;div&gt;&lt;span style=&quot;background-color: initial;&quot;&gt;&amp;nbsp; &amp;nbsp; &amp;nbsp; &amp;nbsp; &amp;nbsp; &amp;nbsp;return _context;&lt;/span&gt;&lt;br&gt;&lt;/div&gt;" style="shape=note;whiteSpace=wrap;html=1;backgroundOutline=1;darkOpacity=0.05;align=left;fillColor=#f5f5f5;fontColor=#333333;strokeColor=#666666;" vertex="1" parent="1">
          <mxGeometry x="560" y="280" width="260" height="60" as="geometry" />
        </mxCell>
      </root>
    </mxGraphModel>
  </diagram>
</mxfile>
